<?xml version="1.0" encoding="UTF-8" standalone="no" ?>
<!DOCTYPE svg PUBLIC "-//W3C//DTD SVG 1.1//EN" "http://www.w3.org/Graphics/SVG/1.1/DTD/svg11.dtd">
<svg xmlns="http://www.w3.org/2000/svg" xmlns:xlink="http://www.w3.org/1999/xlink" version="1.1" width="1024" height="1024" viewBox="0 0 1024 1024" xml:space="preserve">
<desc>Created with Fabric.js 2.3.6</desc>
<defs>
</defs>
	<g id="text-1" transform="translate(512 768.750064) scale(1.163172 1.163172)">
		<text xml:space="preserve" font-family="Overlock SC" font-size="47" font-style="normal" font-weight="400" style="stroke: none; stroke-width: 0; stroke-dasharray: none; stroke-linecap: butt; stroke-linejoin: miter; stroke-miterlimit: 4; fill: rgb(255,255,255); fill-rule: nonzero; opacity: 1; white-space: pre;" ><tspan x="-354.20375" y="14.76458" >B</tspan><tspan x="-323.30125" y="14.76458" >E</tspan><tspan x="-295.33625" y="14.76458" >A</tspan><tspan x="-264.31625" y="14.76458" >R</tspan><tspan x="-234.23625" y="14.76458" style="white-space: pre; "> </tspan><tspan x="-218.25625" y="14.76458" >C</tspan><tspan x="-184.76875" y="14.76458" >O</tspan><tspan x="-146.11125" y="14.76458" >N</tspan><tspan x="-111.33125" y="14.76458" >S</tspan><tspan x="-81.83875" y="14.76458" >T</tspan><tspan x="-54.81375" y="14.76458" >R</tspan><tspan x="-24.73375" y="14.76458" >U</tspan><tspan x="10.75125" y="14.76458" >C</tspan><tspan x="44.23875" y="14.76458" >T</tspan><tspan x="71.26375" y="14.76458" >I</tspan><tspan x="86.77375" y="14.76458" >O</tspan><tspan x="125.43125" y="14.76458" >N</tspan><tspan x="160.21125" y="14.76458" style="white-space: pre; "> </tspan><tspan x="176.19125" y="14.76458" >G</tspan><tspan x="210.26625" y="14.76458" >R</tspan><tspan x="240.34625" y="14.76458" >O</tspan><tspan x="279.00375" y="14.76458" >U</tspan><tspan x="314.48875" y="14.76458" >P</tspan><tspan x="343.39375" y="14.76458" style="white-space: pre; "> </tspan></text>
	</g>
<path id="icon-1" d="M 64.527 11.536 l 0.324 0.206 c 0.93 0.602 2.113 1.413 3.42 2.533 a 34.702 34.702 0 0 1 2.67 2.47 a 34.58 34.58 0 0 1 4.965 6.458 c 1.151 1.937 1.87 3.516 2.303 4.592 c 0.647 1.005 0.791 1.65 0.791 1.65 s -0.216 -0.574 -0.72 -1.65 c -0.415 -0.888 -0.978 -2.12 -1.81 -3.572 a 35.632 35.632 0 0 1 2.538 5.927 c 0.996 3.056 1.565 6.255 1.637 9.311 c 0.142 3.056 -0.214 5.828 -0.712 8.174 c -0.498 2.345 -1.28 4.193 -1.85 5.472 c -0.64 1.208 -1.138 1.848 -1.351 1.777 c -0.214 -0.142 -0.071 -0.853 0.284 -2.203 c 0.356 -1.28 0.854 -3.127 1.28 -5.402 c 0.428 -2.274 0.712 -4.904 0.641 -7.747 a 35.908 35.908 0 0 0 -1.352 -8.884 c -0.853 -2.985 -2.063 -5.828 -3.628 -8.387 a 34.245 34.245 0 0 0 -4.909 -6.468 a 35.681 35.681 0 0 0 -3.807 -3.43 a 35.425 35.425 0 0 0 -3.006 -1.787 A 34.296 34.296 0 0 0 49.86 6.773 a 36.423 36.423 0 0 0 -14.75 1.435 c -4.964 1.578 -9.857 4.448 -13.958 8.466 c -4.03 4.018 -7.267 9.184 -8.994 14.996 c -1.727 5.811 -1.8 11.838 -0.576 17.434 c 1.223 5.597 3.813 10.547 7.195 14.637 c 3.31 4.018 7.411 7.103 11.584 9.184 c 4.174 2.08 8.49 3.085 12.448 3.444 s 7.627 0 10.65 -0.718 a 31.903 31.903 0 0 0 7.698 -2.654 c 2.015 -0.933 3.454 -1.866 4.46 -2.512 c 1.008 -0.645 1.512 -1.004 1.512 -1.004 s -0.432 0.43 -1.44 1.148 c -0.934 0.717 -2.445 1.65 -4.46 2.655 c -2.015 1.004 -4.605 2.08 -7.699 2.798 c -3.094 0.717 -6.763 1.148 -10.793 0.79 c -4.03 -0.288 -8.418 -1.364 -12.663 -3.445 A 36.829 36.829 0 0 1 18.2 64.172 a 35.915 35.915 0 0 1 -4.461 -6.816 c -1.224 -2.512 -2.23 -5.166 -2.878 -8.036 c -1.296 -5.668 -1.152 -11.839 0.575 -17.794 c 1.727 -5.955 5.037 -11.193 9.138 -15.282 a 36.384 36.384 0 0 1 14.247 -8.61 C 39.93 5.984 45.11 5.697 49.788 6.27 c 4.748 0.574 8.994 2.009 12.52 3.946 a 38.39 38.39 0 0 1 2.22 1.319 z M 7.51 37.329 s 0.07 -0.924 0.355 -2.559 a 36.13 36.13 0 0 1 1.921 -7.107 a 38.904 38.904 0 0 1 5.62 -9.95 c 2.704 -3.483 6.475 -6.966 11.312 -9.667 a 39.346 39.346 0 0 1 7.897 -3.34 c 2.846 -0.853 5.905 -1.35 9.035 -1.493 c 3.13 -0.142 6.403 0.071 9.676 0.782 c 3.272 0.71 6.474 1.777 9.604 3.34 c 3.06 1.564 5.976 3.625 8.608 6.042 c 2.633 2.416 4.91 5.26 6.83 8.387 c 1.92 3.127 3.344 6.538 4.269 10.092 c 0.924 3.554 1.351 7.32 1.28 11.017 a 36.143 36.143 0 0 1 -1.92 10.945 c -1.139 3.554 -2.846 6.894 -4.91 9.88 a 39.584 39.584 0 0 1 -7.398 8.03 a 39.596 39.596 0 0 1 -9.036 5.544 c -3.201 1.422 -6.545 2.346 -9.888 2.843 c -3.344 0.498 -6.688 0.498 -9.818 0.143 c -3.202 -0.356 -6.26 -1.067 -9.106 -2.133 s -5.478 -2.345 -7.826 -3.909 c -4.696 -3.056 -8.253 -6.894 -10.814 -10.59 a 35.475 35.475 0 0 1 -4.909 -10.59 c -0.853 -3.127 -1.138 -5.686 -1.21 -7.392 c -0.07 -1.705 0.072 -2.63 0.214 -2.63 c 0.143 0 0.285 0.925 0.64 2.56 a 47.855 47.855 0 0 0 1.78 7.036 c 0.995 2.914 2.56 6.396 5.121 9.879 c 2.49 3.483 5.905 7.036 10.387 9.88 c 2.206 1.42 4.696 2.63 7.4 3.624 c 2.703 0.995 5.548 1.635 8.536 1.99 c 2.988 0.284 6.119 0.284 9.249 -0.142 c 3.13 -0.426 6.26 -1.35 9.32 -2.63 c 6.047 -2.63 11.596 -6.965 15.58 -12.65 c 1.992 -2.844 3.628 -5.971 4.695 -9.312 a 36.65 36.65 0 0 0 1.921 -10.376 a 37.256 37.256 0 0 0 -1.067 -10.52 a 35.996 35.996 0 0 0 -3.984 -9.665 a 39.71 39.71 0 0 0 -6.403 -8.103 a 38.533 38.533 0 0 0 -8.181 -5.9 a 36.731 36.731 0 0 0 -9.178 -3.41 a 38.631 38.631 0 0 0 -9.39 -0.925 c -3.06 0.071 -6.048 0.569 -8.822 1.35 c -2.775 0.783 -5.407 1.849 -7.755 3.128 a 37.445 37.445 0 0 0 -11.312 9.31 c -2.774 3.412 -4.624 6.824 -5.762 9.738 a 33.29 33.29 0 0 0 -2.063 7.036 c -0.356 1.493 -0.427 2.417 -0.498 2.417 z m 72.992 23.667 s -0.427 0.853 -1.28 2.346 a 38.603 38.603 0 0 1 -4.055 5.615 c -1.85 2.132 -4.34 4.477 -7.328 6.61 c -2.988 2.06 -6.474 3.909 -10.174 5.188 a 39.725 39.725 0 0 1 -11.311 2.132 c -3.7 0.142 -7.115 -0.213 -10.031 -0.853 c -2.846 -0.568 -5.194 -1.492 -6.759 -2.203 c -1.565 -0.71 -2.419 -1.35 -2.348 -1.492 c 0.071 -0.214 0.996 0.142 2.561 0.64 c 1.566 0.497 3.842 1.207 6.688 1.776 a 41.68 41.68 0 0 0 9.746 0.782 c 3.558 -0.071 7.4 -0.71 11.028 -1.848 c 3.628 -1.137 7.114 -2.772 10.102 -4.762 c 2.988 -1.919 5.478 -4.193 7.47 -6.255 c 1.992 -2.06 3.415 -3.98 4.34 -5.401 c 0.853 -1.422 1.351 -2.275 1.351 -2.275 z" style="stroke: none; stroke-width: 1; stroke-dasharray: none; stroke-linecap: butt; stroke-linejoin: miter; stroke-miterlimit: 4; fill: rgb(255,255,255); fill-rule: nonzero; opacity: 1;" transform="translate(480.91149 366.514424) scale(3.520954 3.520954) translate(-45.49408047276182, -43.044778360024985) " stroke-linecap="round" />
<path id="icon-2" d="M 60.585 24.247 c 4.486 -0.217 6.826 -0.325 7.016 -0.325 c 1.75 0 3.59 0.26 5.522 0.78 c 1.064 0.433 2.178 0.965 3.339 1.598 c 1.731 0.944 3.001 1.797 3.806 2.56 c 0.21 0.198 0.412 0.396 0.604 0.591 c 1.823 -1.611 3.198 -1.995 4.125 -1.15 c 0.735 0.676 1.207 1.659 1.416 2.95 c 0.211 1.289 0.06 2.638 -0.455 4.046 c -0.517 1.41 -0.973 2.428 -1.37 3.053 c 0.021 0.529 0.032 1.089 0.032 1.683 c 0 2.2 -0.303 4.585 -0.909 7.159 c -0.606 2.563 -0.909 4.451 -0.909 5.664 c 0 1.688 0.315 2.987 0.947 3.897 c 0.592 0.857 1.461 1.503 2.605 1.936 c 0.127 0.108 0.221 0.199 0.278 0.273 c 0.391 0.501 0.585 1.217 0.585 2.143 c 0 2.33 -0.433 4.604 -1.299 6.821 c -0.067 0.173 -0.137 0.343 -0.208 0.506 c -0.102 0.375 -0.223 0.718 -0.364 1.027 c -1.056 2.295 -3.117 3.442 -6.183 3.442 c -1.065 0 -1.759 -0.256 -2.079 -0.767 c -0.104 -0.165 -0.165 -0.351 -0.183 -0.559 c 0.01 -0.183 0.014 -0.282 0.014 -0.299 c 0 -0.389 0.342 -0.915 1.026 -1.578 c 0.094 -0.156 0.206 -0.322 0.338 -0.5 c 0.477 -0.649 0.714 -1.156 0.714 -1.521 c -1.859 -0.945 -3.724 -2.061 -5.593 -3.345 c 0.108 1.542 -0.146 3.148 -0.766 4.818 c -0.627 1.688 -1.954 2.583 -3.982 2.684 c -5.213 0.064 -8.271 -0.072 -9.173 -0.409 c -0.9 -0.336 -1.29 -0.906 -1.168 -1.708 c 0.122 -0.804 0.878 -1.665 2.267 -2.586 c 1.387 -0.92 2.082 -1.559 2.085 -1.916 c 0.004 -0.356 -0.242 -0.612 -0.74 -0.767 c -2.173 -0.636 -3.944 -1.842 -5.313 -3.618 c -0.745 -0.961 -1.316 -2.027 -1.715 -3.196 c -0.277 -0.807 -0.428 -1.485 -0.448 -2.033 c -0.356 -0.202 -0.784 -0.412 -1.28 -0.629 c -1.628 -0.72 -2.841 -1.079 -3.638 -1.079 c -0.059 0 -0.117 0.004 -0.176 0.014 c -0.378 0.648 -0.809 1.719 -1.292 3.209 c -0.485 1.48 -1.014 2.606 -1.585 3.377 c -1.169 1.56 -1.971 2.694 -2.404 3.404 c -0.762 1.238 -1.217 2.343 -1.364 3.313 c -0.181 1.142 -0.286 1.798 -0.317 1.968 c -0.037 0.791 -0.169 1.369 -0.396 1.734 c -0.174 0.274 -0.431 0.495 -0.773 0.663 c -6.484 0.924 -10.043 0.924 -10.679 0 c -0.16 -0.178 -0.24 -0.354 -0.24 -0.532 c 0 -0.468 0.182 -0.931 0.545 -1.391 c 0.511 -0.554 0.914 -1 1.208 -1.338 c 1.169 -1.343 1.754 -3.031 1.754 -5.067 c 0 -0.55 -0.028 -1.084 -0.084 -1.604 c -0.076 0.579 -0.182 1.113 -0.319 1.604 c -0.597 2.104 -1.697 3.157 -3.3 3.157 c -1.169 0 -2.295 -1.382 -3.377 -4.145 c -0.338 -0.874 -0.649 -1.831 -0.936 -2.871 c -0.225 -0.805 -0.338 -1.247 -0.338 -1.325 c 0 -0.927 0.255 -1.81 0.767 -2.65 c 0.707 -0.999 1.341 -1.898 1.903 -2.695 c -1.335 -1.144 -2.255 -1.964 -2.761 -2.462 c 0.165 0.217 0.294 0.468 0.39 0.754 c 0.067 0.2 0.108 0.38 0.124 0.539 c -0.69 -0.595 -1.255 -1.086 -1.695 -1.475 c -0.84 -0.745 -1.312 -1.291 -1.416 -1.638 v 0.585 c 0 0.018 0.043 0.251 0.13 0.702 c 0.087 0.484 0.13 0.792 0.13 0.923 h -0.13 c -0.65 -0.658 -1.183 -1.374 -1.598 -2.145 c -0.225 -0.416 -0.559 -1.174 -1 -2.273 c 0.035 0.304 0.018 0.633 -0.052 0.987 c -0.069 0.381 -0.182 0.615 -0.338 0.702 c -0.624 -1.828 -1.753 -3.257 -3.391 -4.288 c -1.663 -1.056 -3.521 -1.489 -5.574 -1.299 c -1.611 0.147 -3.412 -0.433 -5.404 -1.741 c -2.027 -1.333 -3.04 -2.659 -3.04 -3.975 c 0 -1.204 0.862 -2.183 2.585 -2.936 c 0.45 -0.2 1.104 -0.468 1.962 -0.807 c 0.675 -0.303 1.108 -0.614 1.299 -0.935 c 0.046 -0.078 0.094 -0.156 0.143 -0.234 c 0.258 -0.463 0.479 -0.844 0.662 -1.144 c 0.459 -0.771 0.927 -1.386 1.403 -1.845 c 1.11 -1.088 2.43 -1.768 3.962 -2.04 c 0.169 -1.034 0.273 -1.619 0.312 -1.754 c 0.398 -1.386 1.009 -2.079 1.832 -2.079 c 0.434 0 1.07 0.325 1.91 0.975 c 0.741 0.567 1.538 1.147 2.391 1.74 c 0.951 0.312 1.813 0.468 2.585 0.468 c 0.65 0 1.568 -0.18 2.754 -0.539 c 0.851 -0.459 1.886 -0.99 3.105 -1.591 c 2.468 -1.221 4.932 -1.832 7.392 -1.832 c 1.265 0 2.559 0.13 3.885 0.39 c 0.579 0.112 1.762 0.403 3.546 0.871 c 3.231 0.84 6.319 1.26 9.263 1.26 C 53.726 24.584 56.091 24.472 60.585 24.247 z M 12.66 31.808 c -0.251 -0.251 -0.559 -0.377 -0.923 -0.377 c -0.364 0 -0.671 0.126 -0.922 0.377 c -0.251 0.251 -0.377 0.559 -0.377 0.922 c 0 0.355 0.125 0.662 0.377 0.922 c 0.251 0.251 0.558 0.377 0.922 0.377 c 0.364 0 0.671 -0.126 0.923 -0.377 c 0.251 -0.26 0.376 -0.567 0.376 -0.922 C 13.036 32.367 12.911 32.059 12.66 31.808 z" style="stroke: none; stroke-width: 1; stroke-dasharray: none; stroke-linecap: butt; stroke-linejoin: miter; stroke-miterlimit: 4; fill: rgb(255,255,255); fill-rule: evenodd; opacity: 1;" transform="translate(453.791654 535.381337) scale(6.255981 6.255981) translate(-44.85899999999996, -47.48100000000001) " stroke-linecap="round" />
</svg>